<svg stroke-width="0" viewBox="0 0 135 40" width="135" height="40" fill="none" stroke="currentColor" stroke-linecap="round" xmlns="http://www.w3.org/2000/svg" xmlns:xlink="http://www.w3.org/1999/xlink"><g><path fill="#010101" d="M130.2,40H4.7C2.1,40,0,37.9,0,35.3V4.7C0,2.1,2.1,0,4.7,0h125.5c2.6,0,4.8,2.1,4.8,4.7v30.5 C135,37.9,132.8,40,130.2,40L130.2,40z"></path><path fill="#010101" d="M134,35.3c0,2.1-1.7,3.8-3.8,3.8H4.7c-2.1,0-3.8-1.7-3.8-3.8V4.7c0-2.1,1.7-3.8,3.8-3.8h125.5 c2.1,0,3.8,1.7,3.8,3.8V35.3L134,35.3z"></path></g><g><g><path fill="#FFFFFF" d="M88.9,28.5l-0.9,0.8c-0.2,0.1-0.4,0.2-0.6,0.3c-0.6,0.3-1.2,0.3-1.8,0.3c-0.6,0-1.5,0-2.4-0.7 c-1.3-0.9-1.9-2.5-1.9-3.9c0-2.8,2.3-4.2,4.2-4.2c0.7,0,1.3,0.2,1.9,0.5c0.9,0.6,1.2,1.4,1.3,1.8l-4.3,1.7L83,25.4 c0.5,2.3,2,3.7,3.8,3.7C87.7,29.1,88.3,28.8,88.9,28.5C88.9,28.5,89,28.5,88.9,28.5z M86.3,23.9c0.4-0.1,0.5-0.2,0.5-0.5 c0-0.7-0.8-1.6-1.8-1.6c-0.7,0-2.1,0.6-2.1,2.6c0,0.3,0,0.6,0.1,1L86.3,23.9z"></path><path fill="#FFFFFF" d="M79.9,28.4c0,0.7,0.1,0.8,0.7,0.9c0.3,0,0.6,0.1,0.9,0.1l-0.7,0.4h-3.2c0.4-0.5,0.5-0.6,0.5-1v-0.4l0-10.9 h-1.4l1.4-0.7h2.6c-0.6,0.3-0.7,0.5-0.8,1.2L79.9,28.4z"></path><path fill="#FFFFFF" d="M74.9,22.1c0.4,0.3,1.3,1.1,1.3,2.5c0,1.4-0.8,2-1.5,2.6c-0.2,0.2-0.5,0.5-0.5,0.9c0,0.4,0.3,0.6,0.5,0.8 l0.7,0.5c0.8,0.7,1.5,1.3,1.5,2.6c0,1.7-1.7,3.5-4.8,3.5c-2.7,0-3.9-1.3-3.9-2.6c0-0.7,0.3-1.6,1.4-2.2c1.1-0.7,2.7-0.8,3.5-0.8 c-0.3-0.3-0.6-0.7-0.6-1.2c0-0.3,0.1-0.5,0.2-0.7c-0.2,0-0.4,0-0.6,0c-1.9,0-3-1.5-3-2.9c0-0.8,0.4-1.8,1.2-2.5c1-0.9,2.3-1,3.3-1 h3.8L76,22.1H74.9z M73.6,30.3c-0.2,0-0.2,0-0.4,0c-0.2,0-1.2,0-1.9,0.3c-0.4,0.1-1.6,0.6-1.6,1.9c0,1.3,1.3,2.2,3.2,2.2 c1.8,0,2.7-0.8,2.7-2C75.6,31.8,75,31.3,73.6,30.3z M74.1,26.8c0.4-0.4,0.5-1,0.5-1.3c0-1.3-0.8-3.4-2.3-3.4c-0.5,0-1,0.2-1.3,0.6 c-0.3,0.4-0.4,0.9-0.4,1.4c0,1.2,0.7,3.3,2.3,3.3C73.3,27.3,73.8,27.1,74.1,26.8z"></path><path fill="#FFFFFF" d="M63.5,30c-2.9,0-4.5-2.3-4.5-4.3c0-2.4,2-4.5,4.7-4.5c2.7,0,4.4,2.1,4.4,4.3C68.2,27.7,66.5,30,63.5,30z M65.8,28.5c0.4-0.6,0.6-1.3,0.6-2c0-1.6-0.8-4.7-3-4.7c-0.6,0-1.2,0.2-1.7,0.6c-0.7,0.6-0.8,1.4-0.8,2.2c0,1.8,0.9,4.8,3.1,4.8 C64.7,29.5,65.4,29.1,65.8,28.5z"></path><path fill="#FFFFFF" d="M53.8,30c-2.9,0-4.5-2.3-4.5-4.3c0-2.4,2-4.5,4.7-4.5c2.7,0,4.4,2.1,4.4,4.3C58.4,27.7,56.8,30,53.8,30z M56.1,28.5c0.4-0.6,0.5-1.3,0.5-2c0-1.6-0.8-4.7-3-4.7c-0.6,0-1.2,0.2-1.6,0.6c-0.7,0.6-0.8,1.4-0.8,2.2c0,1.8,0.9,4.8,3.1,4.8 C54.9,29.5,55.6,29.1,56.1,28.5z"></path><path fill="#FFFFFF" d="M48.1,29.4l-2.5,0.6c-1,0.2-1.9,0.3-2.8,0.3c-4.7,0-6.5-3.5-6.5-6.2c0-3.3,2.6-6.4,6.9-6.4 c0.9,0,1.8,0.1,2.6,0.4c1.3,0.4,1.9,0.8,2.3,1.1l-1.4,1.4l-0.6,0.1l0.4-0.7c-0.6-0.6-1.7-1.6-3.7-1.6c-2.7,0-4.8,2.1-4.8,5.1 c0,3.2,2.3,6.3,6.1,6.3c1.1,0,1.7-0.2,2.2-0.4v-2.8l-2.6,0.1l1.4-0.7h3.6l-0.4,0.4c-0.1,0.1-0.1,0.1-0.2,0.3c0,0.2,0,0.7,0,0.8 V29.4z"></path></g><g><path fill="#FFFFFF" d="M94.2,28.6v4.7h-0.9V21.4h0.9v1.4c0.6-0.9,1.7-1.6,3-1.6c2.3,0,3.8,1.7,3.8,4.5c0,2.7-1.5,4.5-3.8,4.5 C96,30.2,94.9,29.6,94.2,28.6z M100.1,25.7c0-2.1-1.1-3.7-3-3.7c-1.2,0-2.3,0.9-2.8,1.8v3.8c0.5,0.8,1.6,1.8,2.8,1.8 C99,29.4,100.1,27.8,100.1,25.7z"></path><path fill="#FFFFFF" d="M102.3,30V18.1h0.9V30H102.3z"></path><path fill="#FFFFFF" d="M113.7,32.5c0.2,0.1,0.5,0.1,0.8,0.1c0.6,0,1-0.2,1.3-1.1l0.7-1.5l-3.7-8.7h1l3.1,7.5l3.1-7.5h1l-4.5,10.5 c-0.5,1.1-1.2,1.6-2.2,1.6c-0.3,0-0.7-0.1-0.9-0.1L113.7,32.5z"></path><path fill="#FFFFFF" d="M111,30c-0.1-0.3-0.1-0.6-0.1-0.8c0-0.2,0-0.4,0-0.7c-0.3,0.5-0.8,0.9-1.3,1.2c-0.6,0.3-1.1,0.5-1.9,0.5 c-0.9,0-1.6-0.2-2.1-0.7c-0.5-0.5-0.7-1.1-0.7-1.8c0-0.8,0.4-1.4,1.1-1.9c0.7-0.5,1.7-0.7,2.8-0.7h2.2V24c0-0.6-0.2-1.1-0.6-1.5 c-0.4-0.4-1-0.5-1.8-0.5c-0.7,0-1.3,0.2-1.7,0.5c-0.4,0.3-0.6,0.7-0.6,1.2h-0.9l0,0c0-0.6,0.3-1.2,0.9-1.7 c0.6-0.5,1.5-0.7,2.5-0.7c1,0,1.8,0.2,2.4,0.7c0.6,0.5,0.9,1.2,0.9,2.1v4.2c0,0.3,0,0.6,0.1,0.9c0,0.3,0.1,0.6,0.2,0.9H111z M107.7,29.3c0.8,0,1.4-0.2,1.9-0.5c0.6-0.3,1-0.8,1.2-1.3v-1.7h-2.2c-0.8,0-1.5,0.2-2.1,0.6c-0.5,0.4-0.8,0.8-0.8,1.3 c0,0.5,0.2,0.9,0.5,1.2C106.6,29.2,107.1,29.3,107.7,29.3z"></path></g></g><g><polygon fill="none" points="24.2,25.2 27.2,22.2 27.2,22.2 24.2,25.2 14.7,15.7 14.7,15.7 24.2,25.2 14.7,34.7 14.7,34.7 24.2,25.2 27.2,28.2 27.2,28.2"></polygon><linearGradient id="google_play_svg_1" gradientUnits="userSpaceOnUse" x1="500.1123" y1="-486.5779" x2="487.572" y2="-494.4261" gradientTransform="matrix(0.7071 0.7071 -0.7071 0.7071 -675.5106 14.8849)"><stop offset="0" style="stop-color:#D7E69D"></stop><stop offset="0.4456" style="stop-color:#94C4AA"></stop><stop offset="1" style="stop-color:#01A4B6"></stop></linearGradient><path fill="url(#google_play_svg_1)" d="M27.2,22.2l-11.6-6.4c-0.3-0.2-0.6-0.2-0.9-0.1l9.5,9.5L27.2,22.2z"></path><linearGradient id="google_play_svg_2" gradientUnits="userSpaceOnUse" x1="492.8211" y1="-493.2821" x2="509.0801" y2="-489.0318" gradientTransform="matrix(0.7071 0.7071 -0.7071 0.7071 -675.5106 14.8849)"><stop offset="0" style="stop-color:#ED277B"></stop><stop offset="1.915717e-02" style="stop-color:#EE2F7C"></stop><stop offset="0.7039" style="stop-color:#F7BD81"></stop><stop offset="1" style="stop-color:#FEEB74"></stop></linearGradient><path fill="url(#google_play_svg_2)" d="M27.2,28.2l4-2.2c0.8-0.4,0.8-1.2,0-1.6l-4-2.2l-3,3L27.2,28.2z"></path><linearGradient id="google_play_svg_3" gradientUnits="userSpaceOnUse" x1="501.8978" y1="-480.6248" x2="484.2669" y2="-490.9977" gradientTransform="matrix(0.7071 0.7071 -0.7071 0.7071 -675.5106 14.8849)"><stop offset="0" style="stop-color:#89CFBD"></stop><stop offset="9.067577e-02" style="stop-color:#7DBEBB"></stop><stop offset="0.5396" style="stop-color:#457CAC"></stop><stop offset="0.8523" style="stop-color:#1C5AA2"></stop><stop offset="1" style="stop-color:#084D9F"></stop></linearGradient><path fill="url(#google_play_svg_3)" d="M14.7,15.7c-0.4,0.1-0.6,0.5-0.6,1l0,17c0,0.5,0.2,0.9,0.6,1l9.5-9.5L14.7,15.7z"></path><linearGradient id="google_play_svg_4" gradientUnits="userSpaceOnUse" x1="508.2989" y1="-488.8607" x2="497.4431" y2="-474.5588" gradientTransform="matrix(0.7071 0.7071 -0.7071 0.7071 -675.5106 14.8849)"><stop offset="0" style="stop-color:#F04A2B"></stop><stop offset="0.4704" style="stop-color:#B54F6B"></stop><stop offset="0.8353" style="stop-color:#8B5191"></stop><stop offset="1" style="stop-color:#7851A1"></stop></linearGradient><path fill="url(#google_play_svg_4)" d="M14.7,34.7c0.2,0.1,0.6,0,0.9-0.1l11.6-6.4l-3-3L14.7,34.7z"></path></g><g><g><path fill="#FFFFFF" d="M36.3,8.4c0-1.8,1.4-3,3-3c1.1,0,1.9,0.5,2.3,1.2l-0.8,0.5c-0.3-0.4-0.9-0.8-1.5-0.8c-1.1,0-2,0.9-2,2.1 c0,1.2,0.9,2.1,2,2.1c0.6,0,1.1-0.3,1.4-0.5V9.1h-1.7V8.2h2.7v2.2c-0.6,0.6-1.4,1.1-2.4,1.1C37.6,11.4,36.3,10.2,36.3,8.4z"></path><path fill="#FFFFFF" d="M43,11.3V5.5h4v0.9h-3v1.5h2.9v0.9H44v1.6h3v0.9H43z"></path><path fill="#FFFFFF" d="M49.7,11.3V6.4H48V5.5h4.5v0.9h-1.8v4.9H49.7z"></path><path fill="#FFFFFF" d="M56.1,11.3V5.5h1v5.8H56.1z"></path><path fill="#FFFFFF" d="M59.9,11.3V6.4h-1.8V5.5h4.5v0.9h-1.8v4.9H59.9z"></path><path fill="#FFFFFF" d="M66,8.4c0-1.7,1.2-3,3-3c1.7,0,3,1.3,3,3c0,1.7-1.2,3-3,3C67.2,11.4,66,10.1,66,8.4z M70.9,8.4 c0-1.2-0.8-2.1-1.9-2.1c-1.2,0-1.9,0.9-1.9,2.1c0,1.2,0.7,2.1,1.9,2.1C70.1,10.5,70.9,9.6,70.9,8.4z"></path><path fill="#FFFFFF" d="M77.1,11.3l-3-4.1v4.1h-1V5.5h1l3,4v-4h1v5.8H77.1z"></path></g></g></svg>
